<svg width="44" height="44" viewBox="0 0 44 44" fill="none" xmlns="http://www.w3.org/2000/svg">
  <rect width="44" height="44" rx="6" fill="#4F46E5"/>
  <path d="M31 13.5C28.5 11 25.5 9.75 22 9.75C18.5 9.75 15.5 11 13 13.5C10.5 16 9.25 19 9.25 22.5C9.25 26 10.5 29 13 31.5C15.5 34 18.5 35.25 22 35.25C25.5 35.25 28.5 34 31 31.5C33.5 29 34.75 26 34.75 22.5H29.75C29.75 24.5 29 26.25 27.5 27.75C26 29.25 24.25 30 22 30C19.75 30 17.75 29.25 16.25 27.75C14.75 26.25 14 24.5 14 22.5C14 20.5 14.75 18.75 16.25 17.25C17.75 15.75 19.75 15 22 15C24.25 15 26 15.75 27.5 17.25L31 13.5Z" fill="white"/>
</svg>